<svg width="300" height="300" viewBox="0 0 300 300" fill="none" xmlns="http://www.w3.org/2000/svg">
    <rect width="300" height="300" rx="38" fill="#EEEEEE" />
    <circle cx="246.084" cy="133.567" r="41.1988" fill="url(#paint0_linear_1_2)" />
    <g filter="url(#filter0_d_1_2)">
        <path
            d="M207.558 120.367C208.06 120.137 208.281 119.544 208.052 119.042L204.31 110.856C204.08 110.354 203.487 110.133 202.985 110.363C202.482 110.592 202.261 111.186 202.491 111.688L205.817 118.964L198.541 122.29C198.039 122.519 197.818 123.113 198.048 123.615C198.277 124.117 198.871 124.338 199.373 124.109L207.558 120.367ZM91.6623 77.5025L206.793 120.394L207.491 118.52L92.3605 75.6284L91.6623 77.5025Z"
            fill="#303030" />
    </g>
    <g filter="url(#filter1_d_1_2)">
        <path
            d="M103.968 199.357C104.459 199.611 105.062 199.418 105.316 198.928L109.447 190.932C109.701 190.441 109.508 189.838 109.018 189.585C108.527 189.331 107.924 189.523 107.67 190.014L103.998 197.121L96.8907 193.449C96.4 193.196 95.7967 193.388 95.5432 193.879C95.2897 194.369 95.482 194.973 95.9726 195.226L103.968 199.357ZM70.7414 96.0576L103.475 198.772L105.38 198.165L72.647 95.4503L70.7414 96.0576Z"
            fill="#303030" />
    </g>
    <g filter="url(#filter2_d_1_2)">
        <path
            d="M218.298 163.549C218.338 162.998 217.923 162.52 217.372 162.481L208.395 161.839C207.844 161.8 207.366 162.215 207.326 162.766C207.287 163.316 207.702 163.795 208.253 163.834L216.232 164.404L215.662 172.384C215.623 172.935 216.038 173.413 216.588 173.453C217.139 173.492 217.618 173.077 217.657 172.526L218.298 163.549ZM150.232 222.928L217.956 164.234L216.646 162.722L148.922 221.417L150.232 222.928Z"
            fill="#303030" />
    </g>
    <circle cx="54.1988" cy="60.1988" r="41.1988" fill="url(#paint1_linear_1_2)" />
    <circle cx="112.893" cy="239.668" r="41.1988" fill="url(#paint2_linear_1_2)" />
    <defs>
        <filter id="filter0_d_1_2" x="87.6623" y="75.6284" width="124.48" height="56.5711"
            filterUnits="userSpaceOnUse" color-interpolation-filters="sRGB">
            <feFlood flood-opacity="0" result="BackgroundImageFix" />
            <feColorMatrix in="SourceAlpha" type="matrix"
                values="0 0 0 0 0 0 0 0 0 0 0 0 0 0 0 0 0 0 127 0" result="hardAlpha" />
            <feOffset dy="4" />
            <feGaussianBlur stdDeviation="2" />
            <feComposite in2="hardAlpha" operator="out" />
            <feColorMatrix type="matrix" values="0 0 0 0 0 0 0 0 0 0 0 0 0 0 0 0 0 0 0.25 0" />
            <feBlend mode="normal" in2="BackgroundImageFix" result="effect1_dropShadow_1_2" />
            <feBlend mode="normal" in="SourceGraphic" in2="effect1_dropShadow_1_2" result="shape" />
        </filter>
        <filter id="filter1_d_1_2" x="66.7414" y="95.4503" width="46.8175" height="112.019"
            filterUnits="userSpaceOnUse" color-interpolation-filters="sRGB">
            <feFlood flood-opacity="0" result="BackgroundImageFix" />
            <feColorMatrix in="SourceAlpha" type="matrix"
                values="0 0 0 0 0 0 0 0 0 0 0 0 0 0 0 0 0 0 127 0" result="hardAlpha" />
            <feOffset dy="4" />
            <feGaussianBlur stdDeviation="2" />
            <feComposite in2="hardAlpha" operator="out" />
            <feColorMatrix type="matrix" values="0 0 0 0 0 0 0 0 0 0 0 0 0 0 0 0 0 0 0.25 0" />
            <feBlend mode="normal" in2="BackgroundImageFix" result="effect1_dropShadow_1_2" />
            <feBlend mode="normal" in="SourceGraphic" in2="effect1_dropShadow_1_2" result="shape" />
        </filter>
        <filter id="filter2_d_1_2" x="144.922" y="161.837" width="77.379" height="69.0911"
            filterUnits="userSpaceOnUse" color-interpolation-filters="sRGB">
            <feFlood flood-opacity="0" result="BackgroundImageFix" />
            <feColorMatrix in="SourceAlpha" type="matrix"
                values="0 0 0 0 0 0 0 0 0 0 0 0 0 0 0 0 0 0 127 0" result="hardAlpha" />
            <feOffset dy="4" />
            <feGaussianBlur stdDeviation="2" />
            <feComposite in2="hardAlpha" operator="out" />
            <feColorMatrix type="matrix" values="0 0 0 0 0 0 0 0 0 0 0 0 0 0 0 0 0 0 0.25 0" />
            <feBlend mode="normal" in2="BackgroundImageFix" result="effect1_dropShadow_1_2" />
            <feBlend mode="normal" in="SourceGraphic" in2="effect1_dropShadow_1_2" result="shape" />
        </filter>
        <linearGradient id="paint0_linear_1_2" x1="246.084" y1="92.3677" x2="246.084" y2="174.765"
            gradientUnits="userSpaceOnUse">
            <stop stop-color="#1729CF" />
            <stop offset="1" stop-color="#2A26F1" />
        </linearGradient>
        <linearGradient id="paint1_linear_1_2" x1="54.1988" y1="19" x2="54.1988" y2="101.398"
            gradientUnits="userSpaceOnUse">
            <stop stop-color="#CF1717" />
            <stop offset="1" stop-color="#D00000" />
        </linearGradient>
        <linearGradient id="paint2_linear_1_2" x1="112.893" y1="198.469" x2="112.893" y2="280.866"
            gradientUnits="userSpaceOnUse">
            <stop stop-color="#1BCF17" />
            <stop offset="1" stop-color="#209E00" />
        </linearGradient>
    </defs>
</svg>